<svg aria-hidden="true" style="position: absolute; width: 0; height: 0; overflow: hidden;"
    version="1.1" xmlns="http://www.w3.org/2000/svg" xmlns:xlink="http://www.w3.org/1999/xlink">
    <defs>
        <symbol id="icon-arrow-right-svg" viewBox="0 0 38 32">
            <path
                d="M0 16c0-0.606 0.253-1.187 0.703-1.616s1.060-0.669 1.697-0.669h27.803l-10.304-9.809c-0.451-0.429-0.704-1.011-0.704-1.618s0.253-1.189 0.704-1.618c0.451-0.429 1.062-0.67 1.699-0.67s1.248 0.241 1.699 0.67l14.398 13.712c0.223 0.212 0.401 0.464 0.522 0.742s0.183 0.575 0.183 0.876-0.062 0.598-0.183 0.876c-0.121 0.278-0.298 0.53-0.522 0.742l-14.398 13.712c-0.451 0.429-1.062 0.67-1.699 0.67s-1.248-0.241-1.699-0.67c-0.451-0.429-0.704-1.011-0.704-1.618s0.253-1.189 0.704-1.618l10.304-9.808h-27.803c-0.636 0-1.247-0.241-1.697-0.669s-0.703-1.010-0.703-1.616z"></path>
        </symbol>
        <symbol id="icon-header-burger-svg" viewBox="0 0 48 32">
            <path
                d="M2.667 32c-0.756 0-1.388-0.256-1.899-0.768s-0.766-1.145-0.768-1.899c-0.002-0.754 0.254-1.387 0.768-1.899s1.147-0.768 1.899-0.768h42.667c0.755 0 1.389 0.256 1.901 0.768s0.767 1.145 0.765 1.899c-0.002 0.754-0.258 1.387-0.768 1.901s-1.143 0.769-1.899 0.765h-42.667zM2.667 18.667c-0.756 0-1.388-0.256-1.899-0.768s-0.766-1.145-0.768-1.899c-0.002-0.754 0.254-1.387 0.768-1.899s1.147-0.768 1.899-0.768h42.667c0.755 0 1.389 0.256 1.901 0.768s0.767 1.145 0.765 1.899c-0.002 0.754-0.258 1.388-0.768 1.901s-1.143 0.769-1.899 0.765h-42.667zM2.667 5.333c-0.756 0-1.388-0.256-1.899-0.768s-0.766-1.145-0.768-1.899c-0.002-0.754 0.254-1.387 0.768-1.899s1.147-0.768 1.899-0.768h42.667c0.755 0 1.389 0.256 1.901 0.768s0.767 1.145 0.765 1.899c-0.002 0.754-0.258 1.388-0.768 1.901s-1.143 0.769-1.899 0.765h-42.667z"></path>
        </symbol>
        <symbol id="icon-hero-svg-1" viewBox="0 0 63 32">
            <path
                d="M20.199 27.746c2.343 3.836 8.822 5.44 13.315 3.295 2.4-1.146 4.091-3.093 6.344-4.424 2.912-1.726 6.548-2.32 10.044-2.957s7.125-1.421 9.782-3.412c2.656-1.991 3.939-5.559 1.898-8.002-1.721-2.060-5.086-2.636-8.106-2.626s-6.125 0.415-9.004-0.351c-3.825-1.019-6.42-3.869-9.363-6.137s-7.289-4.099-10.857-2.568c-3.54 1.518-4.463 5.579-7.819 7.362-2.063 1.097-4.664 1.13-7.114 1.163-2.995 0.039-12.661 1.827-8.129 6.119 3.572 3.379 12.061-0.377 16.010 5.197 1.583 2.229 1.583 5.028 2.999 7.341z"></path>
        </symbol>
        <symbol id="icon-hero-svg-2" viewBox="0 0 54 32">
            <path
                d="M44.166 31.999c-1.501 0-3.042-0.135-4.402-0.255l-19.020-1.673c-4.244-0.374-8.438-1.1-10.377-3.866-0.817-1.168-1.063-2.507-1.301-3.805-0.217-1.182-0.42-2.299-1.021-3.302-0.785-1.313-2.146-2.275-3.589-3.293-1.539-1.088-3.134-2.219-3.936-3.803-1.491-2.952 0.432-6.342 3.103-8.165 2.774-1.893 6.379-2.654 9.861-3.195 2.777-0.432 5.177-0.641 7.35-0.641 4.39 0 7.835 0.848 10.517 2.591 2.59 1.68 4.232 4.095 5.82 6.43 1.311 1.927 2.668 3.919 4.541 5.466 1.35 1.114 2.986 2.009 4.568 2.874 1.244 0.68 2.53 1.383 3.692 2.198 2.591 1.815 4.966 4.828 3.855 7.842-0.891 2.42-3.722 3.794-6.074 4.273-1.176 0.229-2.381 0.338-3.589 0.326zM20.834 0.671c-2.117 0-4.477 0.206-7.201 0.629-3.377 0.524-6.865 1.258-9.5 3.055-2.44 1.665-4.21 4.735-2.872 7.384 0.729 1.441 2.18 2.466 3.715 3.552 1.44 1.017 2.93 2.070 3.787 3.503 0.656 1.098 0.88 2.319 1.097 3.503 0.236 1.292 0.46 2.511 1.2 3.566 1.759 2.508 5.736 3.183 9.767 3.538l19.020 1.673c1.339 0.117 2.857 0.251 4.318 0.251 1.144 0.012 2.285-0.091 3.399-0.307 2.136-0.436 4.702-1.666 5.494-3.817 0.996-2.703-1.318-5.531-3.603-7.129-1.126-0.789-2.392-1.482-3.617-2.151-1.615-0.883-3.285-1.797-4.693-2.958-1.959-1.612-3.337-3.646-4.674-5.612-1.622-2.382-3.152-4.633-5.615-6.231-2.539-1.652-5.818-2.45-10.022-2.45z"></path>
        </symbol>
        <symbol id="icon-hero-svg-3" viewBox="0 0 33 32">
            <path
                d="M9.456 32c-0.784 0.001-1.564-0.089-2.316-0.269-2.032-0.488-3.853-1.77-4.872-3.43-0.951-1.548-1.108-3.205-0.446-4.665 0.722-1.591 2.265-2.872 3.756-4.111 1.971-1.639 3.832-3.187 3.67-5.274-0.169-2.185-2.507-3.701-4.767-5.17-0.212-0.138-0.422-0.273-0.63-0.411-2.608-1.717-4.865-4.39-3.378-6.737 0.788-1.246 2.383-1.933 4.492-1.933 1.603 0 3.359 0.399 4.82 1.093 0.804 0.382 1.594 0.827 2.357 1.256 2.051 1.153 3.988 2.242 6.308 2.357 0.137 0.007 0.275 0.010 0.412 0.010 1.429 0 2.915-0.356 4.347-0.7 1.419-0.34 2.887-0.691 4.287-0.691 0.89-0.012 1.771 0.155 2.563 0.487 2.69 1.142 3.377 4.082 2.485 6.264s-3.016 3.89-5.173 5.397c-0.244 0.171-0.49 0.341-0.737 0.511-1.842 1.275-3.748 2.588-4.968 4.279-0.841 1.165-1.347 2.503-1.836 3.796-0.514 1.359-1.045 2.765-1.972 4.006-1.774 2.389-5.077 3.935-8.406 3.935zM4.965 0.521c-1.076 0-3.009 0.215-3.922 1.65-1.311 2.074 0.909 4.579 3.211 6.094 0.205 0.136 0.416 0.273 0.626 0.409 2.26 1.469 4.82 3.132 5.008 5.546 0.179 2.324-1.87 4.028-3.853 5.675-1.449 1.199-2.938 2.44-3.612 3.926-0.601 1.323-0.453 2.832 0.417 4.249 0.941 1.532 2.616 2.714 4.479 3.162 0.694 0.165 1.413 0.248 2.135 0.247 3.063 0 6.224-1.481 7.865-3.686 0.885-1.184 1.404-2.562 1.907-3.891s1.016-2.689 1.895-3.908c1.274-1.765 3.222-3.11 5.106-4.41 0.246-0.169 0.491-0.339 0.734-0.509 2.086-1.457 4.135-3.096 4.981-5.165 0.806-1.974 0.213-4.621-2.173-5.634-0.702-0.293-1.482-0.44-2.27-0.428-1.308 0-2.667 0.326-4.106 0.67-1.627 0.39-3.315 0.793-4.983 0.71-2.498-0.125-4.6-1.306-6.633-2.448-0.755-0.424-1.535-0.862-2.317-1.236-1.366-0.65-2.914-1.002-4.495-1.022z"></path>
        </symbol>
        <symbol id="icon-hero-svg-4" viewBox="0 0 41 32">
            <path
                d="M21.538 32c-1.255 0-2.374-0.346-3.227-1-1.696-1.301-1.82-3.293-1.939-5.218-0.109-1.755-0.221-3.57-1.526-4.846-1.615-1.579-4.352-1.749-6.998-1.913-0.371-0.023-0.739-0.046-1.099-0.072-3.277-0.241-6.634-1.573-6.747-4.005-0.099-2.152 2.471-3.558 3.581-4.063 0.546-0.248 1.123-0.474 1.677-0.691 1.287-0.504 2.616-1.025 3.623-1.851 1.179-0.968 1.916-2.334 2.624-3.656 1.072-1.995 2.085-3.879 4.499-4.508 0.449-0.117 0.917-0.177 1.388-0.177 3.37 0 5.963 2.924 6.674 3.82 0.299 0.375 0.595 0.769 0.883 1.149 1.423 1.886 2.895 3.836 5.323 4.634 1.226 0.403 2.657 0.494 4.040 0.581 2.186 0.138 4.446 0.28 5.815 1.701 1.67 1.738 0.798 4.36-0.925 6.051-0.888 0.871-1.968 1.6-3.012 2.307-0.93 0.628-1.89 1.278-2.703 2.020-1.196 1.089-2.097 2.406-2.969 3.677-0.822 1.198-1.672 2.439-2.775 3.507-1.604 1.551-4.040 2.554-6.207 2.554zM17.395 0.31c-0.432 0-0.862 0.055-1.274 0.163-2.25 0.586-3.229 2.408-4.266 4.336-0.727 1.348-1.473 2.742-2.703 3.75-1.053 0.864-2.413 1.397-3.728 1.913-0.551 0.218-1.123 0.439-1.657 0.683-2.181 0.993-3.448 2.404-3.385 3.777 0.104 2.242 3.289 3.477 6.4 3.703 0.359 0.026 0.727 0.049 1.094 0.072 2.725 0.169 5.543 0.343 7.261 2.023 1.388 1.356 1.502 3.224 1.614 5.032 0.121 1.949 0.235 3.791 1.819 5.006 0.793 0.608 1.791 0.916 2.968 0.916 2.029 0 4.407-0.98 5.917-2.444 1.079-1.045 1.92-2.271 2.734-3.458 0.881-1.286 1.793-2.614 3.017-3.733 0.831-0.758 1.803-1.416 2.744-2.052 1.031-0.697 2.097-1.416 2.962-2.266 1.626-1.594 2.465-4.049 0.92-5.656-1.263-1.313-3.342-1.445-5.543-1.583-1.412-0.089-2.872-0.181-4.152-0.602-2.544-0.836-4.049-2.831-5.505-4.759-0.286-0.381-0.582-0.772-0.878-1.143-0.688-0.859-3.176-3.675-6.359-3.675v-0.002z"></path>
        </symbol>
        <symbol id="icon-twitter-svg" viewBox="0 0 38 32">
            <path
                d="M13.457 30.4c13.284 0 20.55-11.083 20.55-20.677 0-0.31 0-0.625-0.013-0.935 1.415-1.031 2.636-2.308 3.606-3.77-1.321 0.587-2.722 0.973-4.156 1.148 1.51-0.909 2.642-2.339 3.184-4.025-1.419 0.846-2.972 1.441-4.592 1.757-1.088-1.167-2.529-1.941-4.098-2.2s-3.18 0.009-4.582 0.765c-1.402 0.755-2.518 1.955-3.174 3.414s-0.817 3.094-0.456 4.654c-2.872-0.145-5.681-0.896-8.245-2.205s-4.828-3.145-6.642-5.391c-0.921 1.602-1.202 3.497-0.786 5.3s1.498 3.379 3.026 4.408c-1.145-0.039-2.265-0.349-3.269-0.904v0.1c0.002 1.678 0.579 3.304 1.634 4.603s2.523 2.191 4.156 2.526c-0.62 0.172-1.26 0.258-1.903 0.255-0.453 0.001-0.906-0.041-1.351-0.126 0.462 1.444 1.36 2.707 2.57 3.612s2.671 1.405 4.177 1.432c-2.56 2.024-5.721 3.122-8.976 3.117-0.574 0.002-1.147-0.031-1.716-0.1 3.303 2.121 7.14 3.247 11.057 3.245z"></path>
        </symbol>
        <symbol id="icon-instagram-svg" viewBox="0 0 32 32">
            <path
                d="M16.667 1.333c-3.98 0-4.481 0.018-6.044 0.088-1.564 0.073-2.629 0.319-3.562 0.682-0.979 0.368-1.865 0.946-2.598 1.692-0.746 0.733-1.323 1.619-1.692 2.598-0.363 0.931-0.611 1.998-0.682 3.557-0.070 1.567-0.088 2.066-0.088 6.052 0 3.982 0.018 4.481 0.088 6.044 0.073 1.562 0.319 2.627 0.682 3.56 0.376 0.964 0.876 1.782 1.692 2.598 0.814 0.816 1.632 1.318 2.596 1.692 0.935 0.363 1.998 0.611 3.56 0.682 1.566 0.070 2.064 0.088 6.048 0.088s4.481-0.018 6.046-0.088c1.56-0.073 2.629-0.319 3.562-0.682 0.978-0.368 1.864-0.946 2.596-1.692 0.816-0.816 1.316-1.634 1.692-2.598 0.361-0.933 0.609-1.998 0.682-3.56 0.070-1.564 0.088-2.062 0.088-6.046s-0.018-4.482-0.088-6.048c-0.073-1.56-0.321-2.627-0.682-3.559-0.369-0.979-0.946-1.865-1.692-2.598-0.732-0.747-1.619-1.324-2.598-1.692-0.935-0.363-2.002-0.611-3.562-0.682-1.566-0.070-2.063-0.088-6.048-0.088h0.004zM15.352 3.977h1.316c3.916 0 4.38 0.013 5.925 0.084 1.43 0.064 2.207 0.304 2.724 0.504 0.684 0.266 1.173 0.585 1.687 1.098s0.831 1.001 1.096 1.687c0.202 0.515 0.44 1.293 0.504 2.723 0.071 1.546 0.086 2.009 0.086 5.924s-0.015 4.38-0.086 5.925c-0.064 1.43-0.304 2.206-0.504 2.723-0.235 0.637-0.611 1.213-1.098 1.685-0.513 0.513-1.001 0.831-1.687 1.096-0.513 0.202-1.291 0.44-2.723 0.506-1.546 0.070-2.009 0.086-5.925 0.086s-4.382-0.017-5.927-0.086c-1.43-0.066-2.206-0.304-2.723-0.506-0.637-0.235-1.213-0.609-1.687-1.096-0.488-0.473-0.864-1.049-1.1-1.687-0.2-0.515-0.44-1.293-0.504-2.723-0.070-1.546-0.084-2.009-0.084-5.927 0-3.916 0.015-4.378 0.084-5.924 0.066-1.43 0.304-2.207 0.506-2.724 0.266-0.684 0.585-1.173 1.098-1.687s1.001-0.83 1.687-1.096c0.517-0.202 1.293-0.44 2.723-0.506 1.353-0.062 1.877-0.081 4.611-0.083v0.004zM24.497 6.412c-0.231 0-0.46 0.046-0.673 0.134s-0.408 0.218-0.571 0.382c-0.163 0.163-0.293 0.357-0.381 0.571s-0.134 0.442-0.134 0.674c0 0.231 0.046 0.46 0.134 0.674s0.218 0.408 0.381 0.571c0.163 0.163 0.357 0.293 0.571 0.382s0.442 0.134 0.673 0.134c0.467 0 0.915-0.185 1.245-0.515s0.515-0.778 0.515-1.245-0.185-0.914-0.515-1.245c-0.33-0.33-0.778-0.516-1.245-0.516zM16.669 8.469c-0.999-0.016-1.991 0.168-2.919 0.539s-1.772 0.924-2.484 1.625-1.277 1.537-1.663 2.458c-0.386 0.922-0.585 1.911-0.585 2.91s0.199 1.988 0.585 2.91c0.386 0.922 0.951 1.757 1.663 2.458s1.556 1.253 2.484 1.625c0.928 0.372 1.92 0.555 2.919 0.539 1.977-0.031 3.863-0.838 5.251-2.247s2.165-3.307 2.165-5.285-0.778-3.876-2.165-5.285c-1.387-1.409-3.273-2.216-5.251-2.247zM16.669 11.111c1.297 0 2.54 0.515 3.457 1.432s1.432 2.161 1.432 3.457-0.515 2.54-1.432 3.457c-0.917 0.917-2.161 1.432-3.457 1.432s-2.541-0.515-3.457-1.432c-0.917-0.917-1.432-2.161-1.432-3.457s0.515-2.54 1.432-3.457c0.917-0.917 2.161-1.432 3.457-1.432z"></path>
        </symbol>
        <symbol id="icon-facebook-svg" viewBox="0 0 32 32">
            <path
                d="M31.333 15.427c0-8.52-6.865-15.427-15.331-15.427-8.471 0.002-15.335 6.907-15.335 15.429 0 7.698 5.607 14.080 12.936 15.237v-10.78h-3.89v-4.458h3.894v-3.402c0-3.865 2.29-6 5.791-6 1.679 0 3.432 0.301 3.432 0.301v3.795h-1.934c-1.903 0-2.497 1.19-2.497 2.411v2.894h4.251l-0.678 4.458h-3.574v10.78c7.328-1.158 12.936-7.539 12.936-15.238z"></path>
        </symbol>
        <symbol id="icon-mail-svg" viewBox="0 0 37 32">
            <path
                d="M-1.4 4.14c0.25-1.122 0.863-2.124 1.741-2.841s1.966-1.108 3.088-1.108h29.714c1.122-0 2.211 0.391 3.088 1.108s1.491 1.719 1.74 2.841l-19.686 12.34-19.686-12.34zM-1.524 7.040v18.042l14.369-9.036-14.369-9.006zM15.218 17.537l-16.269 10.227c0.402 0.869 1.036 1.604 1.829 2.118s1.712 0.786 2.65 0.785h29.714c0.938 0 1.857-0.273 2.649-0.787s1.426-1.249 1.828-2.118l-16.268-10.227-3.066 1.923-3.068-1.92zM23.726 16.049l14.369 9.034v-18.042l-14.369 9.008z"></path>
        </symbol>
        <symbol id="icon-pointer-svg" viewBox="0 0 26 32">
            <path
                d="M12.8 19.2c3.529 0 6.4-2.87 6.4-6.4s-2.87-6.4-6.4-6.4c-3.53 0-6.4 2.87-6.4 6.4s2.87 6.4 6.4 6.4zM12.8 9.6c1.765 0 3.2 1.435 3.2 3.2s-1.435 3.2-3.2 3.2c-1.765 0-3.2-1.435-3.2-3.2s1.435-3.2 3.2-3.2zM11.872 31.702c0.271 0.193 0.595 0.297 0.928 0.297s0.657-0.104 0.928-0.297c0.486-0.344 11.918-8.598 11.872-18.902 0-7.058-5.742-12.8-12.8-12.8s-12.8 5.742-12.8 12.792c-0.046 10.312 11.385 18.566 11.872 18.91zM12.8 3.2c5.294 0 9.6 4.306 9.6 9.608 0.034 7.101-7.021 13.477-9.6 15.568-2.578-2.093-9.633-8.47-9.6-15.576 0-5.294 4.306-9.6 9.6-9.6zM12.8 19.2c3.529 0 6.4-2.87 6.4-6.4s-2.87-6.4-6.4-6.4c-3.53 0-6.4 2.87-6.4 6.4s2.87 6.4 6.4 6.4zM12.8 9.6c1.765 0 3.2 1.435 3.2 3.2s-1.435 3.2-3.2 3.2c-1.765 0-3.2-1.435-3.2-3.2s1.435-3.2 3.2-3.2zM11.872 31.702c0.271 0.193 0.595 0.297 0.928 0.297s0.657-0.104 0.928-0.297c0.486-0.344 11.918-8.598 11.872-18.902 0-7.058-5.742-12.8-12.8-12.8s-12.8 5.742-12.8 12.792c-0.046 10.312 11.385 18.566 11.872 18.91zM12.8 3.2c5.294 0 9.6 4.306 9.6 9.608 0.034 7.101-7.021 13.477-9.6 15.568-2.578-2.093-9.633-8.47-9.6-15.576 0-5.294 4.306-9.6 9.6-9.6z"></path>
        </symbol>
        <symbol id="icon-phone-svg" viewBox="0 0 32 32">
            <path
                d="M25.131 16.469c-0.148-0.149-0.325-0.267-0.519-0.347s-0.402-0.122-0.612-0.122-0.418 0.041-0.612 0.122c-0.194 0.081-0.37 0.199-0.519 0.347l-2.55 2.55c-1.182-0.352-3.389-1.152-4.787-2.55s-2.198-3.605-2.55-4.787l2.55-2.55c0.149-0.148 0.267-0.325 0.347-0.519s0.122-0.402 0.122-0.612c0-0.21-0.041-0.418-0.122-0.612s-0.199-0.37-0.347-0.519l-6.4-6.4c-0.148-0.149-0.325-0.267-0.519-0.347s-0.402-0.122-0.612-0.122c-0.21 0-0.418 0.041-0.612 0.122s-0.37 0.198-0.519 0.347l-4.339 4.339c-0.608 0.608-0.95 1.443-0.938 2.296 0.037 2.278 0.64 10.192 6.877 16.429s14.15 6.838 16.43 6.877h0.045c0.845 0 1.643-0.333 2.248-0.938l4.339-4.339c0.149-0.149 0.267-0.325 0.347-0.519s0.122-0.402 0.122-0.612-0.041-0.418-0.122-0.612c-0.081-0.194-0.199-0.37-0.347-0.519l-6.4-6.402zM24.928 27.208c-1.997-0.034-8.829-0.57-14.197-5.939-5.386-5.386-5.907-12.242-5.939-14.198l3.208-3.208 4.138 4.138-2.069 2.069c-0.188 0.188-0.326 0.42-0.402 0.675s-0.087 0.524-0.033 0.785c0.038 0.184 0.978 4.547 3.634 7.203s7.019 3.595 7.203 3.634c0.26 0.056 0.53 0.045 0.785-0.030s0.487-0.215 0.674-0.403l2.070-2.069 4.138 4.138-3.21 3.208z"></path>
        </symbol>
    </defs>
</svg>